<?xml version="1.0" standalone="no"?>
<!DOCTYPE svg PUBLIC "-//W3C//DTD SVG 20010904//EN"
 "http://www.w3.org/TR/2001/REC-SVG-20010904/DTD/svg10.dtd">
<svg version="1.0" xmlns="http://www.w3.org/2000/svg"
 width="64.000000pt" height="64.000000pt" viewBox="0 0 64.000000 64.000000"
 preserveAspectRatio="xMidYMid meet">
<metadata>
Created by potrace 1.16, written by Peter Selinger 2001-2019
</metadata>
<g transform="translate(0.000000,64.000000) scale(0.100000,-0.100000)"
fill="#000000" stroke="none">
<path d="M310 595 l-44 -45 47 -48 48 -47 24 28 c30 33 35 34 66 1 23 -24 24
-33 27 -172 4 -139 3 -148 -17 -166 -27 -25 -29 -86 -3 -109 25 -23 85 -22
105 1 24 26 22 85 -3 107 -18 17 -20 31 -20 179 0 141 -2 165 -19 190 -24 35
-69 66 -98 66 -13 0 -23 6 -23 13 0 13 -30 47 -41 47 -3 0 -25 -20 -49 -45z"/>
<path d="M77 602 c-24 -26 -22 -85 3 -107 18 -17 20 -31 20 -175 0 -144 -2
-158 -20 -175 -26 -24 -27 -86 -2 -108 25 -23 85 -22 105 1 24 26 22 85 -3
107 -18 17 -20 31 -20 175 0 144 2 158 20 175 26 24 27 86 2 108 -25 23 -85
22 -105 -1z"/>
</g>
</svg>
