<svg xmlns="http://www.w3.org/2000/svg" xmlns:xlink="http://www.w3.org/1999/xlink" xml:space="preserve" version="1.1" style="shape-rendering:geometricPrecision;text-rendering:geometricPrecision;image-rendering:optimizeQuality;" viewBox="0 0 846.66 1058.325" x="0px" y="0px" fill-rule="evenodd" clip-rule="evenodd"><defs><style type="text/css">
   
    .fil0 {fill:black}
   
  </style></defs><g><path class="fil0" d="M483.44 479.43c-23.78,4.33 -44.71,16.85 -59.76,34.52l-27.24 -22.4 -24.29 42.1 33.01 12.34c-3.85,10.79 -5.97,22.4 -5.97,34.51 0,12.11 2.12,23.74 5.97,34.52l-33.01 12.35 24.29 42.09 27.24 -22.4c15.05,17.67 35.98,30.19 59.76,34.51l-5.79 34.78 48.6 0 -5.8 -34.78c23.77,-4.32 44.7,-16.84 59.75,-34.51l27.24 22.4 24.29 -42.09 -32.98 -12.35c3.83,-10.78 5.93,-22.41 5.93,-34.52 0,-12.11 -2.1,-23.72 -5.93,-34.51l32.98 -12.34 -24.29 -42.1 -27.24 22.4c-15.05,-17.67 -35.98,-30.19 -59.75,-34.52l5.8 -34.76 -48.6 0 5.79 34.76zm-109.1 -443.81c-49.07,0 -88.85,39.79 -88.85,88.87 0,49.07 39.78,88.86 88.85,88.86 49.08,0 88.86,-39.79 88.86,-88.86 0,-49.08 -39.78,-88.87 -88.86,-88.87zm-9.99 239.66l-22.89 -11.96 12.57 -27.81 40.65 0 12.56 27.81 -24.25 12.67 14.51 75.24 -23.16 55.15 -23.15 -55.15 13.16 -75.95zm126.85 -41.01l-40.19 0 -33.1 189.91 -87.12 0 -33.12 -189.91 -40.16 0c-23.43,0 -42.58,19.15 -42.58,42.58l0 217.14c0,23.44 19.15,42.6 42.58,42.6l18.26 0 42.56 274.44 112.03 0c5.62,-36.18 11.09,-71.34 16.66,-107.39 -8.56,-3.79 -16.85,-8.62 -24.41,-14.14l-35.02 28.81 -62.17 -107.72 42.33 -15.85c-1.03,-9.53 -1.04,-18.93 0,-28.46l-42.33 -15.84 62.17 -107.72 34.98 28.76c7.65,-5.61 15.91,-10.33 24.59,-14.18l-7.48 -44.85c31.37,0 62.73,0 94.1,0l0 -135.6c0,-23.43 -19.17,-42.58 -42.58,-42.58zm10.75 311.89c-18.96,0 -34.34,15.38 -34.34,34.34 0,18.95 15.38,34.33 34.34,34.33 18.95,0 34.33,-15.38 34.33,-34.33 0,-18.96 -15.38,-34.34 -34.33,-34.34zm0 -22.71c-31.52,0 -57.05,25.53 -57.05,57.05 0,31.51 25.53,57.04 57.05,57.04 31.51,0 57.04,-25.53 57.04,-57.04 0,-31.52 -25.53,-57.05 -57.04,-57.05z"/></g><text x="0" y="861.66" fill="#000000" font-size="5px" font-weight="bold" font-family="'Helvetica Neue', Helvetica, Arial-Unicode, Arial, Sans-serif">Created by Emfahmin</text><text x="0" y="866.66" fill="#000000" font-size="5px" font-weight="bold" font-family="'Helvetica Neue', Helvetica, Arial-Unicode, Arial, Sans-serif">from the Noun Project</text></svg>